<?xml version="1.0" standalone="no"?>
<!DOCTYPE svg PUBLIC "-//W3C//DTD SVG 20010904//EN"
 "http://www.w3.org/TR/2001/REC-SVG-20010904/DTD/svg10.dtd">
<svg version="1.0" xmlns="http://www.w3.org/2000/svg"
 width="700.000000pt" height="700.000000pt" viewBox="0 0 700.000000 700.000000"
 preserveAspectRatio="xMidYMid meet">
<metadata>
Created by potrace 1.11, written by Peter Selinger 2001-2013
</metadata>
<g transform="translate(0.000000,700.000000) scale(0.100000,-0.100000)"
fill="#000000" stroke="none">
<path d="M3397 6084 c-1 -1 -29 -5 -62 -8 -342 -37 -692 -213 -915 -460 -19
-22 -39 -44 -45 -50 -151 -166 -295 -474 -330 -706 -3 -20 -8 -47 -12 -60 -4
-14 -8 -497 -10 -1075 -4 -1360 -3 -1300 -20 -1359 -24 -84 -63 -153 -121
-211 -60 -61 -112 -93 -191 -119 -226 -74 -480 58 -564 291 -20 55 -21 82 -25
503 -4 487 -4 489 -63 523 -28 15 -71 17 -486 17 -507 0 -506 0 -538 -66 -15
-31 -16 -86 -14 -497 1 -253 5 -477 10 -497 4 -19 10 -54 13 -77 10 -78 62
-268 78 -287 4 -6 8 -16 8 -23 0 -30 146 -306 182 -345 7 -7 25 -31 40 -53 37
-54 179 -200 258 -265 349 -287 843 -408 1274 -314 39 8 84 18 100 21 78 14
290 104 400 170 214 128 430 347 542 548 97 173 165 355 189 506 29 181 27 86
29 1394 l2 1100 22 57 c85 214 344 307 537 193 75 -43 148 -139 177 -230 6
-16 12 -137 13 -267 4 -253 9 -281 58 -312 27 -18 336 -140 390 -154 28 -8 49
-7 80 2 51 15 210 73 254 92 17 8 35 14 40 14 23 0 221 84 240 102 12 12 27
35 33 52 9 30 7 479 -3 536 -2 14 -8 45 -11 70 -71 460 -387 885 -816 1096
-85 42 -260 108 -260 98 0 -2 -9 0 -19 6 -11 5 -39 12 -62 15 -23 3 -45 7 -48
10 -17 10 -344 28 -354 19z"/>
<path d="M5958 3352 c-56 -34 -57 -41 -58 -500 -2 -452 -5 -482 -56 -583 -33
-66 -123 -160 -185 -194 -110 -60 -255 -76 -354 -39 -119 43 -214 121 -267
216 -54 98 -59 142 -61 591 -2 386 -3 414 -21 440 -24 35 -69 59 -110 59 -26
0 -154 -42 -246 -80 -127 -53 -229 -83 -265 -79 -22 2 -98 27 -168 56 -140 56
-176 61 -224 31 -65 -39 -66 -46 -66 -435 0 -192 3 -394 7 -447 47 -700 552
-1290 1228 -1437 415 -90 832 -10 1191 227 90 60 196 147 257 213 95 102 100
107 185 235 127 192 207 408 242 655 5 30 8 268 8 530 0 523 1 514 -61 544
-28 13 -95 15 -491 15 -411 -1 -461 -3 -485 -18z"/>
</g>
</svg>
